<?xml version="1.0" encoding="UTF-8"?>
<svg width="491px" height="453px" viewBox="0 0 491 453" version="1.1" xmlns="http://www.w3.org/2000/svg" xmlns:xlink="http://www.w3.org/1999/xlink">
    <!-- Generator: Sketch 50.2 (55047) - http://www.bohemiancoding.com/sketch -->
    <title>Group-11</title>
    <desc>Created with Sketch.</desc>
    <defs>
        <linearGradient x1="98.5370698%" y1="96.8429183%" x2="9.99563816%" y2="0.891525169%" id="linearGradient-1">
            <stop stop-color="#FFFFFF" offset="0%"></stop>
            <stop stop-color="#FDFDFD" offset="47.1902962%"></stop>
            <stop stop-color="#ECF0F6" offset="100%"></stop>
        </linearGradient>
        <path d="M6.09126165,0.912570422 L205.827349,133.305429 C206.60786,133.822783 207.093573,134.682553 207.133888,135.618165 L218.113537,390.425766 C218.200488,392.443655 216.635343,394.149973 214.617689,394.236935 C213.932493,394.266466 213.252804,394.102684 212.656244,393.764292 L9.3056188,278.415932 C4.02288464,275.41936 0.765526548,269.80744 0.783404766,263.733487 L1.5498421,3.34265935 C1.55459803,1.72685645 2.86816798,0.42084531 4.48378287,0.425601848 C5.05568496,0.427285583 5.61455055,0.59658797 6.09126165,0.912570422 Z" id="path-2"></path>
        <path d="M6.09126165,0.912570422 L205.827349,133.305429 C206.60786,133.822783 207.093573,134.682553 207.133888,135.618165 L218.113537,390.425766 C218.200488,392.443655 216.635343,394.149973 214.617689,394.236935 C213.932493,394.266466 213.252804,394.102684 212.656244,393.764292 L9.3056188,278.415932 C4.02288464,275.41936 0.765526548,269.80744 0.783404766,263.733487 L1.5498421,3.34265935 C1.55459803,1.72685645 2.86816798,0.42084531 4.48378287,0.425601848 C5.05568496,0.427285583 5.61455055,0.59658797 6.09126165,0.912570422 Z" id="path-4"></path>
        <linearGradient x1="45.3122437%" y1="34.1208215%" x2="54.0247994%" y2="61.3336391%" id="linearGradient-6">
            <stop stop-color="#B1B4C3" offset="0%"></stop>
            <stop stop-color="#D5D8E4" stop-opacity="0" offset="100%"></stop>
        </linearGradient>
        <linearGradient x1="96.9506221%" y1="53.8889104%" x2="79.0612481%" y2="53.888911%" id="linearGradient-7">
            <stop stop-color="#FCFCFC" offset="0%"></stop>
            <stop stop-color="#FFFFFF" offset="100%"></stop>
        </linearGradient>
        <linearGradient x1="78.0363199%" y1="37.2253212%" x2="32.1403333%" y2="42.2387846%" id="linearGradient-8">
            <stop stop-color="#FFFFFF" offset="0%"></stop>
            <stop stop-color="#D6D8E4" offset="100%"></stop>
        </linearGradient>
        <polygon id="path-9" points="0 0 108.287464 77.0148702 108.287464 163.220365 0 98.6249301"></polygon>
        <linearGradient x1="50%" y1="19.0149813%" x2="50%" y2="79.7650712%" id="linearGradient-11">
            <stop stop-color="#F2F5FF" offset="0%"></stop>
            <stop stop-color="#FFFFFF" offset="100%"></stop>
        </linearGradient>
        <polygon id="path-12" points="0 0.467283737 47.5242467 27.134938 47.5242467 73.4002247 0.0767601322 46.6500756"></polygon>
        <polygon id="path-14" points="0 0.467283737 47.5242467 27.134938 47.5242467 73.4002247 0.0767601322 46.6500756"></polygon>
        <linearGradient x1="50%" y1="0%" x2="50%" y2="100%" id="linearGradient-16">
            <stop stop-color="#FFFFFF" offset="0%"></stop>
            <stop stop-color="#D0D3E0" offset="100%"></stop>
        </linearGradient>
        <path d="M5.48754041,15.8545536 C8.51822529,17.4259381 10.9750808,15.2654502 10.9750808,11.0289689 C10.9750808,6.79248767 8.51822529,2.08428225 5.48754041,0.512897802 C2.45685553,-1.05848664 0,1.1020012 0,5.33848247 C0,9.57496374 2.45685553,14.2831691 5.48754041,15.8545536 Z" id="path-17"></path>
    </defs>
    <g id="Page-1" stroke="none" stroke-width="1" fill="none" fill-rule="evenodd">
        <g id="Desktop-HD" transform="translate(-854.000000, -30.000000)">
            <g id="Group-11" transform="translate(852.000000, 30.000000)">
                <g id="Group-5" transform="translate(85.000000, 45.000000)" fill-rule="nonzero">
                    <path d="M6.50239235,0.711847582 L146.665072,78.3275312 C149.059187,79.7516688 151,82.8402905 151,85.2261606 L151,176.66616 C151,179.052031 149.059187,179.831669 146.665072,178.407531 L6.50239235,100.791848 C4.10827759,99.3677099 2.16746412,96.2790883 2.16746412,93.8932182 L2.16746412,2.45321819 C2.16746412,0.0673480721 4.10827759,-0.712290106 6.50239235,0.711847582 Z" id="Rectangle-41" fill="#D0D3E0" opacity="0.441576087"></path>
                    <path d="M4.33492823,1.43184759 L144.497608,79.0475312 C146.891723,80.4716688 148.832536,83.5602905 148.832536,85.9461606 L148.832536,177.38616 C148.832536,179.772031 146.891723,180.551669 144.497608,179.127531 L4.33492823,101.511848 C1.94081348,100.08771 0,96.9990883 0,94.6132182 L0,3.17321819 C0,0.787348072 1.94081348,0.00770989396 4.33492823,1.43184759 Z" id="Rectangle-41" fill="#FFFFFF"></path>
                    <path d="M11.8122683,29.3295022 C13.8073639,30.435499 15.8947369,28.744372 15.8947369,25.7625844 C15.8947369,22.7807967 14.2773922,19.4669927 12.2822966,18.3609958 C10.287201,17.2549991 8.66985645,18.775628 8.66985645,21.7574156 C8.66985645,24.7392033 9.81717268,28.2235053 11.8122683,29.3295022 Z" id="Oval-5" fill="#D0D3E0" opacity="0.611639493"></path>
                    <path d="M93.359411,82.7154026 C95.7535258,84.0425987 98.2583732,82.0132463 98.2583732,78.4351012 C98.2583732,74.8569561 96.3175598,70.8803912 93.923445,69.5531951 C91.5293302,68.225999 89.5885167,70.0507537 89.5885167,73.6288987 C89.5885167,77.2070439 90.9652962,81.3882064 93.359411,82.7154026 Z" id="Oval-5" fill="#D0D3E0" opacity="0.293987772"></path>
                    <path d="M93.359411,104.315403 C95.7535258,105.642599 98.2583732,103.613246 98.2583732,100.035101 C98.2583732,96.4569561 96.3175598,92.4803912 93.923445,91.1531951 C91.5293302,89.8259989 89.5885167,91.6507537 89.5885167,95.2288988 C89.5885167,98.8070439 90.9652962,102.988206 93.359411,104.315403 Z" id="Oval-5" fill="#D0D3E0" opacity="0.293987772"></path>
                    <path d="M93.359411,125.915402 C95.7535258,127.242598 98.2583732,125.213246 98.2583732,121.635101 C98.2583732,118.056955 96.3175598,114.080391 93.923445,112.753195 C91.5293302,111.425999 89.5885167,113.250754 89.5885167,116.828899 C89.5885167,120.407044 90.9652962,124.588206 93.359411,125.915402 Z" id="Oval-5" fill="#D0D3E0" opacity="0.293987772"></path>
                    <polygon id="Rectangle-17" fill-opacity="0.615007926" fill="#EB2F06" points="9.3923445 38.16 21.6746412 45.0761172 21.6746412 87.5561172 9.3923445 80.64"></polygon>
                    <polygon id="Rectangle-17" fill="#D0D3E0" opacity="0.365319293" points="23.8421052 67.68 36.1244019 74.5961172 36.1244019 95.4761172 23.8421052 88.56"></polygon>
                    <polygon id="Rectangle-17" fill="#D0D3E0" points="52.7416268 91.44 65.0239235 98.3561172 65.0239235 112.036117 52.7416268 105.12"></polygon>
                    <polygon id="Rectangle-17" fill="#D0D3E0" opacity="0.366847826" points="67.1913876 84.96 79.4736842 91.8761172 79.4736842 119.956117 67.1913876 113.04"></polygon>
                    <path d="M21.3133971,27.6431404 L54.279496,46.4569419 C55.277044,47.0109611 56.0857162,48.2659698 56.0857162,49.2600824 C56.0857162,50.2541949 55.277044,50.6109611 54.279496,50.0569419 L21.3133971,31.2431404 C20.3158493,30.6891213 19.5071771,29.4341125 19.5071771,28.44 C19.5071771,27.4458874 20.3158493,27.0891213 21.3133971,27.6431404 Z" id="Rectangle-21" fill="#D0D3E0"></path>
                    <path d="M9.75358851,90.2610259 L29.8566197,101.917035 C30.8541675,102.471054 31.6628398,103.726063 31.6628398,104.720175 C31.6628398,105.714288 30.8541675,106.071054 29.8566197,105.517035 L9.75358851,93.8610259 C8.75604071,93.3070067 7.94736842,92.051998 7.94736842,91.0578854 C7.94736842,90.0637729 8.75604071,89.7070067 9.75358851,90.2610259 Z" id="Rectangle-21" fill="#D0D3E0"></path>
                    <path d="M57.4377991,117.621026 L77.5408302,129.277035 C78.5383781,129.831054 79.3470503,131.086063 79.3470503,132.080175 C79.3470503,133.074288 78.5383781,133.431054 77.5408302,132.877035 L57.4377991,121.221026 C56.4402513,120.667007 55.631579,119.411998 55.631579,118.417886 C55.631579,117.423773 56.4402513,117.067007 57.4377991,117.621026 Z" id="Rectangle-21" fill="#D0D3E0"></path>
                    <path d="M103.677034,120.501026 L123.780065,132.157035 C124.777613,132.711054 125.586284,133.966063 125.586284,134.960175 C125.586284,135.954288 124.777613,136.311054 123.780065,135.757035 L103.677034,124.101026 C102.679486,123.547007 101.870813,122.291998 101.870813,121.297886 C101.870813,120.303773 102.679486,119.947007 103.677034,120.501026 Z" id="Rectangle-21" fill="#525975" opacity="0.246206975"></path>
                    <path d="M103.677034,125.541026 L123.780065,137.197035 C124.777613,137.751054 125.586284,139.006063 125.586284,140.000175 C125.586284,140.994288 124.777613,141.351054 123.780065,140.797035 L103.677034,129.141026 C102.679486,128.587007 101.870813,127.331998 101.870813,126.337886 C101.870813,125.343773 102.679486,124.987007 103.677034,125.541026 Z" id="Rectangle-21" fill="#D0D3E0" opacity="0.246206975"></path>
                    <path d="M103.677034,98.1810259 L123.780065,109.837035 C124.777613,110.391054 125.586284,111.646063 125.586284,112.640175 C125.586284,113.634288 124.777613,113.991054 123.780065,113.437035 L103.677034,101.781026 C102.679486,101.227007 101.870813,99.971998 101.870813,98.9778854 C101.870813,97.9837729 102.679486,97.6270067 103.677034,98.1810259 Z" id="Rectangle-21" fill="#525975" opacity="0.246206975"></path>
                    <path d="M103.677034,103.221026 L123.780065,114.877035 C124.777613,115.431054 125.586284,116.686063 125.586284,117.680175 C125.586284,118.674288 124.777613,119.031054 123.780065,118.477035 L103.677034,106.821026 C102.679486,106.267007 101.870813,105.011998 101.870813,104.017885 C101.870813,103.023773 102.679486,102.667007 103.677034,103.221026 Z" id="Rectangle-21" fill="#D0D3E0" opacity="0.246206975"></path>
                    <path d="M103.677034,76.5810259 L123.780065,88.2370349 C124.777613,88.7910541 125.586284,90.0460628 125.586284,91.0401753 C125.586284,92.0342879 124.777613,92.3910541 123.780065,91.8370349 L103.677034,80.1810259 C102.679486,79.6270067 101.870813,78.371998 101.870813,77.3778854 C101.870813,76.3837729 102.679486,76.0270067 103.677034,76.5810259 Z" id="Rectangle-21" fill="#525975" opacity="0.246206975"></path>
                    <path d="M103.677034,81.6210259 L123.780065,93.2770349 C124.777613,93.8310541 125.586284,95.0860628 125.586284,96.0801753 C125.586284,97.0742879 124.777613,97.4310541 123.780065,96.8770349 L103.677034,85.2210259 C102.679486,84.6670067 101.870813,83.411998 101.870813,82.4178854 C101.870813,81.4237729 102.679486,81.0670067 103.677034,81.6210259 Z" id="Rectangle-21" fill="#D0D3E0" opacity="0.246206975"></path>
                    <polygon id="Rectangle-17" fill="#1E3799" opacity="0.365319293" points="43.3492823 76.32 50.5741627 80.8758979 50.5741627 104.116117 43.3492823 99.5602192"></polygon>
                </g>
                <path d="M260,121 L260,161" id="Line" stroke="#D0D3E0" stroke-width="2" opacity="0.325464221" stroke-linecap="round" stroke-dasharray="5,8"></path>
                <path d="M151.909114,237 C209.949208,237 257,220.199166 257,199.474287 C257,178.749409 236.143794,123.533348 222.752456,135.742865 C209.361118,147.952382 144.599426,179.613262 120.104798,200.666605 C95.6101692,221.719948 93.8690206,237 151.909114,237 Z" id="Oval" fill="#F5F8FB" fill-rule="nonzero" transform="translate(180.500000, 185.500000) rotate(28.000000) translate(-180.500000, -185.500000) "></path>
                <g id="Group-5" transform="translate(315.000000, 108.000000)">
                    <path d="M7.66507177,0.839366763 L172.889952,88.1140957 C175.712154,89.7933511 178,93.4352631 178,96.248534 L178,204.068942 C178,206.882213 175.712154,207.801515 172.889952,206.122259 L7.66507177,118.847529 C4.84287027,117.168274 2.55502393,113.526363 2.55502393,110.713092 L2.55502393,2.89268358 C2.55502393,0.0794126928 4.84287027,-0.839888561 7.66507177,0.839366763 Z" id="Rectangle-41" fill="#D0D3E0" fill-rule="nonzero" opacity="0.441576087"></path>
                    <path d="M5.11004784,2.53732595 L170.334928,88.9630753 C173.15713,90.6423307 175.444976,94.2842427 175.444976,97.0975137 L175.444976,204.917922 C175.444976,207.731193 173.15713,208.650494 170.334928,206.971239 L5.11004784,120.545489 C2.28784635,118.866234 0,115.224322 0,112.411051 L0,4.59064277 C0,1.77737188 2.28784635,0.858070623 5.11004784,2.53732595 Z" id="Rectangle-41" fill="#FFFFFF" fill-rule="nonzero"></path>
                    <path d="M132.435407,169.908188 L156.13302,182.435861 C157.308936,183.089126 158.262206,184.568955 158.262206,185.741151 C158.262206,186.913348 157.308936,187.334024 156.13302,186.680759 L132.435407,174.153086 C131.259489,173.499821 130.30622,172.019993 130.30622,170.847796 C130.30622,169.6756 131.259489,169.254923 132.435407,169.908188 Z" id="Rectangle-21" fill="#D0D3E0" fill-rule="nonzero"></path>
                    <path d="M140.920169,167.524455 L157.258175,176.48337 C158.068896,176.950539 158.726115,178.008809 158.726115,178.847082 C158.726115,179.685355 158.068896,179.986194 157.258175,179.519023 L140.920169,170.560109 C140.109448,170.092939 139.452229,169.034669 139.452229,168.196397 C139.452229,167.358124 140.109448,167.057285 140.920169,167.524455 Z" id="Rectangle-21" fill="#D0D3E0" fill-rule="nonzero" opacity="0.366055254"></path>
                    <polyline id="Path-9" stroke="#2BE6A8" stroke-width="1.51199999" points="11.8578311 85.1002025 38.672733 82.0415457 46.1911665 94.5549311 62.0075109 85.1002025 79.0668354 96.1221223 91.0705665 120.161167 107.551889 112.261558 122.792433 125.900951 160.224961 120.161167"></polyline>
                    <polyline id="Path-9" stroke="#EB2F06" stroke-width="1.51199999" opacity="0.288439764" points="14.412855 70.6675494 38.672733 65.0619538 46.1911665 77.5753392 66.2658841 73.2144882 77.363486 121.59151 90.2188918 137.14076 104.996865 130.939109 121.089084 144.578502 156.818263 142.234637"></polyline>
                    <g id="Oval-5" transform="translate(156.458599, 99.324352)">
                        <g id="path-5-link" transform="translate(0.978022, 0.153909)" fill="#D0D3E0">
                            <path d="M1.60490768,6.2683608 C2.54564221,6.83157269 3.52988698,5.97039221 3.52988698,4.45196248 C3.52988698,2.93353286 2.76727149,1.24602897 1.82653695,0.682816974 C0.885803551,0.119605087 0.12318806,0.89396207 0.12318806,2.41239169 C0.12318806,3.93082142 0.664174277,5.7051488 1.60490768,6.2683608 Z" id="path-5"></path>
                        </g>
                        <path d="M2.27406904,6.93514158 C1.17251094,6.27564513 0.501225325,4.40709127 0.501225325,2.56630065 C0.501225325,0.653399144 1.67430088,-0.537738178 3.11342068,0.323854118 C4.255268,1.00747133 5.10789367,2.89414855 5.10789367,4.60587144 C5.10789367,6.50511684 3.70794521,7.79359511 2.27406904,6.93514158 Z" id="Shape" stroke="#FFFFFF" stroke-width="1.05839998"></path>
                    </g>
                    <path d="M152.938671,102.81852 C153.879405,103.381732 154.86365,102.520551 154.86365,101.002122 C154.86365,99.4836919 154.101034,97.796188 153.160301,97.232976 C152.219567,96.6697642 151.456952,97.4441211 151.456952,98.9625508 C151.456952,100.48098 151.997938,102.255308 152.938671,102.81852 Z" id="Oval-5" fill="#D0D3E0" fill-rule="nonzero" opacity="0.323256341"></path>
                </g>
                <path d="M324.35998,243 C381.87462,243 397,236.725007 397,215.837192 C397,194.949377 350.20715,193.160753 295.254184,181.781481 C240.301218,170.402211 256.108138,186.393246 256.108138,207.281061 C256.108138,228.168877 266.845341,243 324.35998,243 Z" id="Oval" fill="#F5F8FB" fill-rule="nonzero" transform="translate(325.500000, 210.500000) rotate(28.000000) translate(-325.500000, -210.500000) "></path>
                <g id="Group-4" transform="translate(0.000000, 121.000000)">
                    <path d="M2.32628124,194.457194 C2.26248033,196.470719 3.1741454,198.059003 5.06127647,199.22205 C6.94840753,200.385097 80.7670836,243.231017 226.517304,327.75981 C230.26228,330.357738 234.174245,331.656701 238.253198,331.656701 C242.332153,331.656701 245.990513,330.357738 249.22828,327.75981 L447.941551,211.367853 C449.368702,210.322247 450.082278,209.231567 450.082278,208.095812 C450.082278,206.960057 450.082278,205.000471 450.082278,202.217058 L2.32315154,190.806477 L2.32628124,194.457194 Z" id="Path-6" fill="#D0D3E0" fill-rule="nonzero"></path>
                    <g id="Rectangle-20">
                        <g id="Mask" transform="translate(225.994333, 197.373081) rotate(-60.000000) translate(-225.994333, -197.373081) translate(116.494333, -0.126919)" fill="url(#linearGradient-1)" fill-rule="nonzero">
                            <path d="M6.09075617,0.912121554 L205.826843,133.30498 C206.607355,133.822334 207.093067,134.682104 207.133382,135.617716 L218.113031,390.425317 C218.199982,392.443206 216.634838,394.149525 214.617183,394.236486 C213.931987,394.266017 213.252298,394.102235 212.655738,393.763844 L9.30511331,278.415483 C4.02237915,275.418912 0.76502106,269.806991 0.782899279,263.733038 L1.54933661,3.34221048 C1.55409255,1.72640758 2.8676625,0.420396443 4.48327738,0.42515298 C5.05517948,0.426836715 5.61404506,0.596139102 6.09075617,0.912121554 Z" id="path-8"></path>
                        </g>
                        <g id="Clipped" transform="translate(116.374362, 0.000000)">
                            <mask id="mask-3" fill="white">
                                <use xlink:href="#path-2"></use>
                            </mask>
                            <g id="path-8"></g>
                            <polygon id="Shape" fill="#D4D7E3" fill-rule="nonzero" opacity="0.147871377" mask="url(#mask-3)" transform="translate(-41.037048, 201.871232) rotate(60.000000) translate(41.037048, -201.871232) " points="-61.3701572 171.363531 -15.2073974 151.906792 -16.5181094 222.421137 -66.8666995 251.835671"></polygon>
                        </g>
                        <g id="Path-2-Clipped" transform="translate(116.374362, 0.000000)">
                            <mask id="mask-5" fill="white">
                                <use xlink:href="#path-4"></use>
                            </mask>
                            <g id="path-8"></g>
                            <polygon id="Path-2" fill="url(#linearGradient-6)" fill-rule="nonzero" opacity="0.139549366" mask="url(#mask-5)" points="134.70939 276.739688 167.184395 295.476583 298.166351 219.588713 259.598625 202.523492"></polygon>
                        </g>
                    </g>
                    <polygon id="Rectangle-3" fill="url(#linearGradient-7)" fill-rule="nonzero" points="145.225499 127.978744 72.5636687 128.527354 72.6851477 173.108136 145.225499 214.006595"></polygon>
                    <polygon id="Rectangle-8" fill="#FFFFFF" fill-rule="nonzero" points="67.4419644 127.248189 70.3686525 128.575888 70.3686525 173.139745 67.4419644 171.812046"></polygon>
                    <polygon id="Path-3" fill="#B7BAC8" fill-rule="nonzero" points="144.125869 125.787079 58.6618997 125.787079 58.6618997 128.745259 144.125869 128.745259"></polygon>
                    <polygon id="Path-4" fill="url(#linearGradient-8)" fill-rule="nonzero" points="58.6618997 126.015854 155.889584 69.840991 225.341736 69.5343409 144.177404 126.015854"></polygon>
                    <g id="Rectangle-3" transform="translate(142.804186, 113.367644)">
                        <g id="Mask" fill="#FFFFFF" fill-rule="nonzero">
                            <polygon id="path-13" points="0 0 108.287464 77.0148702 108.287464 163.220365 0 98.6249301"></polygon>
                        </g>
                        <g id="Clipped">
                            <mask id="mask-10" fill="white">
                                <use xlink:href="#path-9"></use>
                            </mask>
                            <g id="path-13"></g>
                            <polygon id="Shape" fill="url(#linearGradient-11)" fill-rule="nonzero" mask="url(#mask-10)" points="36.5836028 24.1083163 108.287464 77.0148702 108.287464 163.220365 36.5836028 122.733246"></polygon>
                        </g>
                    </g>
                    <g id="Rectangle-10" transform="translate(77.685373, 129.439854)">
                        <g id="Mask" fill="#8C90A1" fill-rule="nonzero">
                            <polygon id="path-16" points="0 0.467283737 47.5242467 27.134938 47.5242467 73.4002247 0.0767601322 46.6500756"></polygon>
                        </g>
                        <g id="Clipped">
                            <mask id="mask-13" fill="white">
                                <use xlink:href="#path-12"></use>
                            </mask>
                            <g id="path-16"></g>
                            <polygon id="Shape" fill="#D0D3E0" fill-rule="nonzero" mask="url(#mask-13)" points="0 0.730555039 62.1921247 -29.5539239 62.1921247 16.4710436 0.0785241557 46.6548209"></polygon>
                        </g>
                        <g id="Clipped">
                            <mask id="mask-15" fill="white">
                                <use xlink:href="#path-14"></use>
                            </mask>
                            <g id="path-16"></g>
                            <polygon id="Shape" fill="#707380" fill-rule="nonzero" mask="url(#mask-15)" points="0 0.730555039 1.96212637 -0.236111578 1.96212637 45.7888558 0.0785241557 46.6548209"></polygon>
                        </g>
                    </g>
                    <polygon id="Rectangle-9" fill="#EEF0F7" fill-rule="nonzero" points="78.6327362 130.431876 125.198061 156.108196 125.198061 187.416973 78.6327362 161.740653"></polygon>
                    <polygon id="Rectangle-9" fill="#E6E7EF" fill-rule="nonzero" points="78.6327362 159.654078 125.198061 185.330397 125.198061 187.416973 78.6327362 161.740653"></polygon>
                    <rect id="Rectangle-8" fill="#E8E9F0" fill-rule="nonzero" x="70.3686525" y="128.709299" width="2.19501616" height="44.5638573"></rect>
                    <polygon id="Rectangle-5" fill="#E9EAF0" fill-rule="nonzero" points="251.091649 191.553184 376.207572 130.17041 376.207572 202.495358 251.091649 277.028124"></polygon>
                    <polygon id="Rectangle-16" fill="#F9F9FB" fill-rule="nonzero" points="276.700172 203.319419 317.697372 179.848152 317.697372 213.828125 276.700172 237.299392"></polygon>
                    <polygon id="Rectangle-16" fill="#FFFFFF" fill-rule="nonzero" points="278.163517 203.564535 316.942135 181.309262 316.942135 214.184239 278.163517 236.439512"></polygon>
                    <polygon id="Rectangle-16" fill="#D8D8D8" fill-rule="nonzero" points="278.163517 234.247847 316.942135 211.992573 316.942135 214.184239 278.163517 236.439512"></polygon>
                    <polygon id="Rectangle-16" fill="#707380" fill-rule="nonzero" points="314.747118 182.622324 316.983744 181.309262 316.983744 214.184239 314.747118 213.305637"></polygon>
                    <polygon id="Rectangle-16" fill="#D8D8D8" fill-rule="nonzero" points="278.163517 216.418932 314.67403 195.920363 316.005127 196.146747 278.163517 217.880042"></polygon>
                    <polygon id="Rectangle-16" fill="#B1B4C3" fill-rule="nonzero" points="278.163517 217.57586 316.008512 195.920363 316.008512 198.787446 278.163517 220.442944"></polygon>
                    <polygon id="Rectangle-16" fill="#B1B4C3" fill-rule="nonzero" points="276.700172 239.743224 317.707577 216.375904 317.707577 213.453683 276.700172 236.821004"></polygon>
                    <polygon id="Rectangle-16" fill="#F9F9FB" fill-rule="nonzero" points="328.648888 174.097218 369.646088 150.62595 369.646088 184.605924 328.648888 208.077191"></polygon>
                    <polygon id="Rectangle-16" fill="#FFFFFF" fill-rule="nonzero" points="330.112232 174.342334 368.89085 152.08706 368.89085 184.962036 330.112232 207.21731"></polygon>
                    <polygon id="Rectangle-16" fill="#D8D8D8" fill-rule="nonzero" points="330.112232 205.025645 368.89085 182.770372 368.89085 184.962036 330.112232 207.21731"></polygon>
                    <polygon id="Rectangle-16" fill="#707380" fill-rule="nonzero" points="366.695835 153.400123 368.93246 152.08706 368.93246 184.962036 366.695835 184.083435"></polygon>
                    <polygon id="Rectangle-16" fill="#D8D8D8" fill-rule="nonzero" points="330.112232 187.196731 366.622746 166.69816 367.953842 166.924545 330.112232 188.657841"></polygon>
                    <polygon id="Rectangle-16" fill="#B1B4C3" fill-rule="nonzero" points="330.112232 188.353659 367.957228 166.69816 367.957228 169.565245 330.112232 191.220742"></polygon>
                    <polygon id="Rectangle-16" fill="#B1B4C3" fill-rule="nonzero" points="328.648888 210.521022 369.656293 187.153702 369.656293 184.231482 328.648888 207.598802"></polygon>
                    <polygon id="Rectangle-7" fill="url(#linearGradient-16)" fill-rule="nonzero" transform="translate(260.881464, 121.503031) rotate(60.000000) translate(-260.881464, -121.503031) " points="191.815282 82.3156503 329.947646 20.1203531 329.947646 160.690411 191.815282 222.885708"></polygon>
                    <polygon id="Rectangle-7" fill="#EDEEF3" fill-rule="nonzero" transform="translate(322.230937, 167.049489) rotate(60.000000) translate(-322.230937, -167.049489) " points="320.616051 96.0841235 323.845822 97.9841107 323.409417 238.014855 320.644814 236.474595"></polygon>
                    <polygon id="Rectangle-7" fill="#B1B4C3" fill-rule="nonzero" transform="translate(200.051364, 158.218575) rotate(60.000000) translate(-200.051364, -158.218575) " points="133.096376 190.349734 270.51458 127.593855 267.720513 126.087415 129.588149 188.282712"></polygon>
                    <polygon id="Rectangle-11" fill="#D3D5E2" fill-rule="nonzero" points="150.852579 164.506496 171.339396 176.542301 171.339396 225.489488 150.852579 213.453683"></polygon>
                    <polygon id="Rectangle-11" fill="#A5A7B0" fill-rule="nonzero" points="153.047594 165.967606 171.339396 176.713861 171.339396 222.608371 153.047594 211.862117"></polygon>
                    <path d="M160.400384,201.124252 L165.44995,203.869481 C165.873963,204.075426 166.217691,204.568783 166.217691,204.971424 C166.217691,205.374065 165.873963,205.533519 165.44995,205.327573 L160.400384,202.582345 C159.976373,202.3764 159.632643,201.883043 159.632643,201.480402 C159.632643,201.077762 159.976373,200.918307 160.400384,201.124252 Z" id="Rectangle-13" fill="#FFFFFF" fill-rule="nonzero" opacity="0.360394022"></path>
                    <polygon id="Rectangle-11" fill="#F2F3F6" fill-rule="nonzero" points="150.852579 164.506496 153.779267 166.31453 153.725515 212.08944 150.852579 213.453683"></polygon>
                    <polygon id="Rectangle-12" fill="#D6D8E4" fill-rule="nonzero" points="179.374916 233.827645 164.060658 243.353066 164.022676 239.811312 179.375589 230.256449"></polygon>
                    <polygon id="Rectangle-12" fill="#FFFFFF" fill-rule="nonzero" points="142.824464 208.339798 179.395264 230.247264 164.058353 239.801023 125.975728 217.748836"></polygon>
                    <polygon id="Rectangle-18" fill="#FFFFFF" fill-rule="nonzero" points="186.704509 170.350936 233.085359 196.42667 233.085359 243.182192 186.704509 217.106459"></polygon>
                    <polygon id="Rectangle-12" fill="#E4E5ED" fill-rule="nonzero" points="125.975728 221.025309 125.975728 217.837014 164.056403 239.882172 164.069935 243.424465"></polygon>
                    <polygon id="Rectangle-12" fill="#E1E3EC" fill-rule="nonzero" points="185.972837 219.623961 233.478023 246.855947 233.478023 243.312822 185.972837 216.231857"></polygon>
                    <polygon id="Rectangle-12" fill="#D3D5E2" fill-rule="nonzero" points="186.024274 216.195459 231.363298 242.113486 233.39192 241.359455 186.546912 214.914794"></polygon>
                    <polygon id="Rectangle-14" fill="#707380" fill-rule="nonzero" points="187.436182 172.542601 188.899525 173.273156 188.899525 216.375904 187.436182 217.014351"></polygon>
                    <polygon id="Rectangle-14" fill="#E8E9F0" fill-rule="nonzero" points="185.972837 172.542601 187.436182 172.542601 187.436182 217.009918 185.972837 216.228649"></polygon>
                    <polygon id="Rectangle-15" fill="#E8E9F0" fill-rule="nonzero" points="185.972837 169.620381 233.53152 196.650918 233.53152 199.573138 185.972837 172.542601"></polygon>
                    <polygon id="Rectangle-15" fill="#E8E9F0" fill-rule="nonzero" points="188.167854 190.075922 231.346616 214.599146 231.346616 217.521367 188.167854 192.998142"></polygon>
                    <polygon id="Rectangle-15" fill="#D3D5E2" fill-rule="nonzero" points="188.879668 190.075922 231.346616 213.868591 231.346616 214.599146 188.167854 190.075922"></polygon>
                    <polygon id="Rectangle-14" fill="#E8E9F0" fill-rule="nonzero" points="231.336505 198.112028 233.53152 199.367358 233.53152 243.374927 231.336505 242.119597"></polygon>
                    <g id="Path-5" transform="translate(0.128135, 4.514943)"></g>
                    <g id="Oval-5" transform="translate(156.705954, 144.050955)">
                        <g id="Mask" fill="#B1B4C3" fill-rule="nonzero">
                            <path d="M5.48754041,15.8545536 C8.51822529,17.4259381 10.9750808,15.2654502 10.9750808,11.0289689 C10.9750808,6.79248767 8.51822529,2.08428225 5.48754041,0.512897802 C2.45685553,-1.05848664 0,1.1020012 0,5.33848247 C0,9.57496374 2.45685553,14.2831691 5.48754041,15.8545536 Z" id="path-19"></path>
                        </g>
                        <g id="Clipped">
                            <mask id="mask-18" fill="white">
                                <use xlink:href="#path-17"></use>
                            </mask>
                            <g id="path-19"></g>
                            <path d="M6.36203015,14.8837958 C9.06749975,16.2865588 11.2607162,14.3579077 11.2607162,10.5760327 C11.2607162,6.79415769 9.06749975,2.59117813 6.36203015,1.18841505 C3.65656056,-0.214348028 1.4633441,1.71430323 1.4633441,5.49617818 C1.4633441,9.27805315 3.65656056,13.4810327 6.36203015,14.8837958 Z" id="Shape" fill="#FFFFFF" fill-rule="nonzero" mask="url(#mask-18)"></path>
                        </g>
                    </g>
                </g>
                <g id="Group-3" transform="translate(192.000000, 0.000000)" fill-rule="nonzero">
                    <g id="Group-2" fill="#2BE6A8">
                        <path d="M8.85174954,0.763653607 L165.302984,87.8935283 C168.163061,89.2072176 170.481611,92.6017009 170.481611,95.475319 L169.958496,154.522809 C169.958496,157.396427 169.57392,160.743648 162.230723,159.706389 L79.2689969,112.705233 L71.1242463,120.532843 C70.5625679,120.943124 69.828894,120.943124 68.9232246,120.532843 L66.2101544,104.858267 L8.85174954,71.3891083 C5.99167255,70.0754191 3.67312204,66.6809357 3.67312204,63.8073176 L0.441020024,3.31276223 C0.441020024,0.43914407 5.99167255,-0.550035625 8.85174954,0.763653607 Z" id="Rectangle-28"></path>
                        <path d="M5.23392775,1.67239124 L161.685163,88.802266 C164.54524,90.1159552 166.86379,93.5104385 166.86379,96.3840567 L166.86379,156.603219 C166.86379,159.476838 164.54524,160.74141 161.685163,159.427721 L76.6892694,113.126165 L68.8957668,120.558319 L62.5923326,105.767005 L5.23392775,72.2978459 C2.37385076,70.9841567 0.0553002568,67.5896734 0.0553002568,64.7160552 L0.0553002568,4.49689242 C0.0553002568,1.62327426 2.37385076,0.358702007 5.23392775,1.67239124 Z" id="Rectangle-28"></path>
                    </g>
                    <path d="M15.2723786,31.3705393 L16.5321091,30.7867998 L16.5321091,35.5586582 C16.5321091,36.1810798 16.9196924,36.8312943 17.5011239,37.1842897 C18.0825555,37.5372849 18.4701387,37.357685 18.4701387,36.7352633 L18.4701387,29.8886257 L20.4083954,28.9905895 L22.3465386,32.2420427 L22.3465386,39.0886803 C22.3465386,39.7111019 22.7341218,40.3613163 23.3155533,40.7143117 C23.896985,41.067307 24.2845681,40.887707 24.2845681,40.2652854 L24.2845681,35.4934269 L25.5442988,37.6067667 C25.7381471,37.9319692 25.931882,38.1532847 26.2225977,38.3297823 C26.5133136,38.5062801 26.7071619,38.5202717 26.9008967,38.4303765 C27.2884799,38.2507764 27.2884799,37.6283548 26.9008967,36.9780189 L21.0864673,27.2236592 C20.6988842,26.5734448 20.1174525,26.2204495 19.7297557,26.3999805 L13.9154399,29.0942435 C13.5278567,29.2738435 13.5278567,29.896265 13.9154399,30.5466011 C14.3030231,31.1969371 14.8847954,31.5501392 15.2723786,31.3705393 Z" id="Shape" fill="#FFFFFF"></path>
                    <path d="M18.6239244,64.7641188 L18.6239244,62.5576535 C15.8118902,60.6502987 14.6936543,58.2767548 14.5292079,56.0585953 L16.5683439,57.2893245 C16.699901,58.5069822 17.0616832,59.688477 18.6239244,60.8415138 L18.6239244,56.9013973 C16.190117,54.9946718 14.9238794,53.2848008 14.9238794,51.0608239 C14.9238794,49.1170331 16.3874528,48.5469138 18.6239244,49.7391411 L18.6239244,48.1630945 L19.7257155,48.8280852 L19.7257155,50.4216434 C21.8470747,51.9121384 23.1626462,53.8794363 23.359982,56.1699811 L21.419514,54.9988034 C21.2386229,53.8214164 20.7288389,52.9008271 19.7257155,52.1202715 L19.7257155,55.7101555 C22.1595229,57.5993693 23.5737624,59.328521 23.5737624,61.6925909 C23.5737624,63.7414515 22.1430784,64.5065375 19.7257155,63.2226443 L19.7257155,65.4291095 L18.6239244,64.7641188 Z M21.5510711,60.6819265 C21.5510711,59.6837637 21.1563997,58.9552324 19.7257155,57.759016 L19.7257155,61.5065046 C20.8275068,62.0138906 21.5510711,61.7151126 21.5510711,60.6819265 Z M16.8643474,52.0393737 C16.8643474,52.9499784 17.1767957,53.6639067 18.6239244,54.8525368 L18.6239244,51.4027458 C17.4892439,50.8579976 16.8643474,51.1637923 16.8643474,52.0393737 Z" id="$" fill="#FFFFFF"></path>
                    <path d="M35.5526557,60.8063165 L68.5755622,79.5107921 C71.6947036,81.2716614 74.2232673,85.2605239 74.2232673,88.4201659 C74.2232673,91.5798079 71.6947036,92.7137373 68.5755622,90.952868 L35.5526557,72.2483924 C32.4335142,70.4875232 29.9049505,66.4986606 29.9049505,63.3390186 C29.9049505,60.1793766 32.4335142,59.0454473 35.5526557,60.8063165 Z" id="Rectangle-21" fill="#FFFFFF" opacity="0.530344203"></path>
                    <path d="M36.4214235,37.9466194 L133.61139,93.5908934 C136.211305,95.0519506 138.318952,98.3616547 138.318952,100.983324 C138.318952,103.604994 136.211305,104.545856 133.61139,103.084799 L36.4214235,47.4405252 C33.8215087,45.9794681 31.7138614,42.669764 31.7138614,40.0480943 C31.7138614,37.4264246 33.8215087,36.4855622 36.4214235,37.9466194 Z" id="Rectangle-21" fill="#FFFFFF"></path>
                    <path d="M89.9851958,92.9928939 L132.791899,116.769035 C135.91104,118.529905 138.439604,122.518767 138.439604,125.678408 C138.439604,128.838051 135.91104,129.97198 132.791899,128.211111 L89.9851958,104.43497 C86.8660544,102.674101 84.3374907,98.6852379 84.3374907,95.5255959 C84.3374907,92.365954 86.8660544,91.2320247 89.9851958,92.9928939 Z" id="Rectangle-21" fill="#FFFFFF" opacity="0.530344203"></path>
                </g>
            </g>
        </g>
    </g>
</svg>