<?xml version="1.0" encoding="UTF-8"?>
<svg width="42px" height="42px" viewBox="0 0 42 42" version="1.1" xmlns="http://www.w3.org/2000/svg" xmlns:xlink="http://www.w3.org/1999/xlink">
    <!-- Generator: Sketch 50.2 (55047) - http://www.bohemiancoding.com/sketch -->
    <title>001-linkedin</title>
    <desc>Created with Sketch.</desc>
    <defs></defs>
    <g id="Page-1" stroke="none" stroke-width="1" fill="none" fill-rule="evenodd">
        <g id="Desktop-HD" transform="translate(-456.000000, -3129.000000)" fill-rule="nonzero">
            <g id="001-linkedin" transform="translate(456.000000, 3129.000000)">
                <ellipse id="Oval" fill="#007AB9" cx="20.8505841" cy="21.0357368" rx="20.8505841" ry="20.6676842"></ellipse>
                <path d="M33.3086018,22.6987895 L33.3086018,31.2196316 L28.3247257,31.2196316 L28.3247257,23.2698421 C28.3247257,21.2737368 27.6051504,19.9105789 25.8006372,19.9105789 C24.4235575,19.9105789 23.6054867,20.8283158 23.2442124,21.7169474 C23.1130088,22.0345263 23.0791858,22.4755263 23.0791858,22.9209474 L23.0791858,31.2192632 L18.0949381,31.2192632 C18.0949381,31.2192632 18.1618407,17.7549474 18.0949381,16.3612105 L23.0795575,16.3612105 L23.0795575,18.4667368 C23.0695221,18.4833158 23.0553982,18.4995263 23.0464779,18.5153684 L23.0795575,18.5153684 L23.0795575,18.4667368 C23.7418938,17.4565263 24.9230973,16.0123158 27.5713274,16.0123158 C30.8503009,16.0123158 33.3086018,18.1358947 33.3086018,22.6987895 Z M12.8809912,9.19910526 C11.1760885,9.19910526 10.0606726,10.3084211 10.0606726,11.7658947 C10.0606726,13.1924211 11.1437522,14.3337895 12.8155752,14.3337895 L12.8479115,14.3337895 C14.5862655,14.3337895 15.667115,13.1924211 15.667115,11.7658947 C15.6340354,10.3084211 14.5862655,9.19910526 12.8809912,9.19910526 Z M10.3569027,31.2196316 L15.339292,31.2196316 L15.339292,16.3612105 L10.3569027,16.3612105 L10.3569027,31.2196316 Z" id="Shape" fill="#F1F2F2"></path>
            </g>
        </g>
    </g>
</svg>