<?xml version="1.0" encoding="UTF-8"?>
<svg width="42px" height="42px" viewBox="0 0 42 42" version="1.1" xmlns="http://www.w3.org/2000/svg" xmlns:xlink="http://www.w3.org/1999/xlink">
    <!-- Generator: Sketch 50.2 (55047) - http://www.bohemiancoding.com/sketch -->
    <title>002-google-plus</title>
    <desc>Created with Sketch.</desc>
    <defs></defs>
    <g id="Page-1" stroke="none" stroke-width="1" fill="none" fill-rule="evenodd">
        <g id="Desktop-HD" transform="translate(-364.000000, -3129.000000)" fill-rule="nonzero">
            <g id="002-google-plus" transform="translate(364.000000, 3129.000000)">
                <ellipse id="XMLID_30_" fill="#DC4E41" cx="20.8505841" cy="21.0357368" rx="20.8505841" ry="20.6676842"></ellipse>
                <g id="Group" transform="translate(7.061947, 13.263158)">
                    <path d="M0.197362832,8.69768421 C0.12339823,12.2536842 2.59433628,15.6472105 5.99336283,16.7539474 C9.19502655,17.8201579 13.1315044,17.0225263 15.2619823,14.3046842 C16.817469,12.4003158 17.1709381,9.86152632 17.0025664,7.48963158 C14.2606726,7.46531579 11.5187788,7.47342105 8.78097345,7.47747368 C8.77651327,8.44568421 8.78097345,9.41021053 8.78506195,10.3784211 C10.4267788,10.4233684 12.0688673,10.4027368 13.7105841,10.4355263 C13.2961593,11.8432632 12.3520885,13.1533684 10.9192566,13.6617895 C8.15283186,14.8702105 4.62297345,13.2915263 3.75249558,10.4148947 C2.70175221,7.66021053 4.42189381,4.33594737 7.2619115,3.53463158 C9.02293805,2.92047368 10.837115,3.612 12.3439115,4.51942105 C13.1073451,3.81131579 13.8217168,3.05457895 14.5234513,2.28973684 C12.8114867,0.869842105 10.6115044,-0.000736842105 8.34982301,0.190473684 C3.91231858,0.242789474 0.0289911504,4.30352632 0.197362832,8.69768421 Z" id="Shape" fill="#DC4E41"></path>
                    <path d="M22.3387965,5.03557895 C22.3306195,5.84536842 22.3220708,6.65921053 22.3179823,7.46863158 C21.4969381,7.47673684 20.680354,7.48078947 19.8633982,7.48484211 C19.8633982,8.29463158 19.8633982,9.1 19.8633982,9.90978947 C20.680354,9.91384211 21.5013982,9.91789474 22.3179823,9.92636842 C22.3261593,10.7361579 22.3261593,11.5455789 22.3343363,12.3594211 C23.1472035,12.3594211 23.9641593,12.3553684 24.7807434,12.3594211 C24.7852035,11.5455789 24.7889204,10.7361579 24.797469,9.92231579 C25.6140531,9.91826316 26.4350973,9.91421053 27.2520531,9.91015789 C27.2520531,9.10036842 27.2520531,8.295 27.2520531,7.48521053 C26.435469,7.48115789 25.6144248,7.47710526 24.797469,7.469 C24.7930088,6.65921053 24.7852035,5.84536842 24.7807434,5.03594737 C23.9641593,5.03557895 23.151292,5.03557895 22.3387965,5.03557895 Z" id="Shape" fill="#DC4E41"></path>
                    <g fill="#FFFFFF" id="Shape">
                        <path d="M0.197362832,8.69768421 C0.0289911504,4.30352632 3.9119469,0.242789474 8.34945133,0.190105263 C10.6111327,-0.00110526316 12.8114867,0.869473684 14.5230796,2.28936842 C13.8209735,3.05457895 13.1066018,3.81094737 12.3435398,4.51905263 C10.8367434,3.61163158 9.02256637,2.92010526 7.26153982,3.53426316 C4.42115044,4.33594737 2.70100885,7.66021053 3.75212389,10.4145263 C4.62260177,13.2911579 8.15246018,14.8698421 10.918885,13.6614211 C12.3513451,13.153 13.2957876,11.8428947 13.7102124,10.4351579 C12.0684956,10.4027368 10.4264071,10.423 8.78469027,10.3780526 C8.78060177,9.40984211 8.77651327,8.44531579 8.78060177,7.47710526 C11.5184071,7.47305263 14.2603009,7.46494737 17.0021947,7.48926316 C17.1705664,9.86152632 16.817469,12.4003158 15.2616106,14.3043158 C13.1311327,17.0221579 9.19502655,17.8197895 5.99299115,16.7535789 C2.59470796,15.6472105 0.12339823,12.2536842 0.197362832,8.69768421 Z"></path>
                        <path d="M22.3387965,5.03557895 C23.1516637,5.03557895 23.9641593,5.03557895 24.7807434,5.03557895 C24.7852035,5.84536842 24.7930088,6.65921053 24.797469,7.46863158 C25.6140531,7.47673684 26.4350973,7.48078947 27.2520531,7.48484211 C27.2520531,8.29463158 27.2520531,9.1 27.2520531,9.90978947 C26.435469,9.91384211 25.6144248,9.91789474 24.797469,9.92194737 C24.789292,10.7357895 24.7852035,11.5452105 24.7807434,12.3590526 C23.9641593,12.355 23.1468319,12.3590526 22.3343363,12.3590526 C22.326531,11.5452105 22.326531,10.7357895 22.3179823,9.926 C21.5013982,9.91752632 20.680354,9.91384211 19.8633982,9.90942105 C19.8633982,9.09963158 19.8633982,8.29426316 19.8633982,7.48447368 C20.680354,7.48042105 21.4973097,7.47636842 22.3179823,7.46826316 C22.3220708,6.65921053 22.3302478,5.84536842 22.3387965,5.03557895 Z"></path>
                    </g>
                </g>
            </g>
        </g>
    </g>
</svg>