<?xml version="1.0" encoding="UTF-8"?>
<svg width="51px" height="42px" viewBox="0 0 51 42" version="1.1" xmlns="http://www.w3.org/2000/svg" xmlns:xlink="http://www.w3.org/1999/xlink">
    <!-- Generator: Sketch 50.2 (55047) - http://www.bohemiancoding.com/sketch -->
    <title>005-twitter</title>
    <desc>Created with Sketch.</desc>
    <defs></defs>
    <g id="Page-1" stroke="none" stroke-width="1" fill="none" fill-rule="evenodd">
        <g id="Desktop-HD" transform="translate(-81.000000, -3129.000000)" fill="#76A9EA" fill-rule="nonzero">
            <g id="005-twitter" transform="translate(81.000000, 3129.000000)">
                <path d="M50.1888789,4.88590246 C49.0557387,5.38336855 47.8794514,5.77582634 46.6724513,6.05995199 C48.0024269,4.80871581 49.0023954,3.24368575 49.5665408,1.49683005 C49.7275654,0.998132912 49.180455,0.566897146 48.7256073,0.833911242 C47.0464758,1.81997989 45.2377786,2.55971604 43.3496261,3.0328074 C43.2400797,3.06025975 43.1270516,3.07417058 43.0136506,3.07417058 C42.6697171,3.07417058 42.335358,2.94774205 42.072372,2.71827489 C40.0634822,0.965387062 37.4797534,0 34.797296,0 C33.6365516,0 32.4646163,0.179117339 31.3139437,0.53242783 C27.7487735,1.62719793 24.9979273,4.5387472 24.1348607,8.13094237 C23.8110708,9.47832331 23.7234088,10.8269353 23.8741128,12.1392314 C23.8913966,12.2900347 23.8194018,12.3952892 23.7750113,12.4446542 C23.697048,12.5311968 23.5865069,12.580808 23.471738,12.580808 C23.4589307,12.580808 23.4457503,12.5801925 23.4326942,12.5789614 C15.628662,11.8611379 8.59133032,8.13882107 3.61697783,2.0978272 C3.36331756,1.78969614 2.87688669,1.82748928 2.67470454,2.17082829 C1.70059937,3.82535546 1.18581823,5.71772092 1.18581823,7.64332465 C1.18581823,10.5943905 2.38336826,13.3754488 4.46350681,15.4028601 C3.58875191,15.1975215 2.74209859,14.8741254 1.95562741,14.4416586 C1.57513701,14.2323806 1.1069846,14.5013644 1.10163784,14.9322309 C1.04717549,19.3162355 3.63973265,23.2171772 7.52347032,24.9737582 C7.4452584,24.9756048 7.36704649,24.9764665 7.28871023,24.9764665 C6.6730867,24.9764665 6.04975389,24.9176224 5.4362442,24.8015347 C5.0077573,24.7205318 4.64778353,25.1229611 4.78083083,25.5342539 C6.04142289,29.4306408 9.43002567,32.3026734 13.4851084,32.954759 C10.1196334,35.1914483 6.20045794,36.3712838 2.12137699,36.3712838 L0.849718375,36.3705451 C0.457912734,36.3705451 0.126537921,36.6234022 0.0266902763,36.9991177 C-0.0716652496,37.3691705 0.109502894,37.7595355 0.443613258,37.9519481 C5.04008655,40.6002996 10.2830205,42 15.6078967,42 C20.2689041,42 24.6288765,41.0842241 28.5668278,39.2782782 C32.176886,37.6226431 35.3670369,35.2559552 38.0486238,32.2439525 C40.5466801,29.4381501 42.5001129,26.1991424 43.8544597,22.6170418 C45.1455159,19.2024867 45.8279118,15.55908 45.8279118,12.0806336 L45.8279118,11.9149347 C45.8277874,11.3564086 46.0829398,10.8308747 46.5280887,10.4731324 C48.217292,9.11528755 49.6882729,7.51689612 50.8999981,5.7223989 C51.2199333,5.24856891 50.7153483,4.65471183 50.1888789,4.88590246 Z" id="Shape"></path>
            </g>
        </g>
    </g>
</svg>