<?xml version="1.0" encoding="UTF-8"?>
<svg width="42px" height="42px" viewBox="0 0 42 42" version="1.1" xmlns="http://www.w3.org/2000/svg" xmlns:xlink="http://www.w3.org/1999/xlink">
    <!-- Generator: Sketch 50.2 (55047) - http://www.bohemiancoding.com/sketch -->
    <title>004-facebook</title>
    <desc>Created with Sketch.</desc>
    <defs></defs>
    <g id="Page-1" stroke="none" stroke-width="1" fill="none" fill-rule="evenodd">
        <g id="Desktop-HD" transform="translate(-180.000000, -3129.000000)" fill="#475993" fill-rule="nonzero">
            <g id="004-facebook" transform="translate(180.000000, 3129.000000)">
                <path d="M36.3213741,0 L5.65685575,0 C2.53283619,0 0.000205378973,2.53252812 0.000205378973,5.65665037 L0.000205378973,36.3213741 C0.000205378973,39.4454963 2.5327335,41.9780244 5.65685575,41.9780244 L20.7804499,41.9780244 L20.8062249,26.9773496 L16.9090562,26.9773496 C16.4025917,26.9773496 15.9915257,26.567824 15.9895746,26.0613594 L15.9708851,21.2260196 C15.968934,20.7167824 16.3812323,20.3029438 16.8904694,20.3029438 L20.7805526,20.3029438 L20.7805526,15.6307775 C20.7805526,10.2087726 24.0919804,7.25644988 28.9287579,7.25644988 L32.8977066,7.25644988 C33.4055061,7.25644988 33.817291,7.66813203 33.817291,8.17603423 L33.817291,12.2532176 C33.817291,12.7609144 33.4058142,13.1724939 32.89822,13.172802 L30.4625281,13.1739315 C27.8321369,13.1739315 27.3227971,14.423868 27.3227971,16.2582103 L27.3227971,20.3030465 L33.1026748,20.3030465 C33.6533985,20.3030465 34.0806895,20.7839413 34.0157897,21.3308655 L33.4426797,26.1662054 C33.3878435,26.6289242 32.995467,26.977555 32.5295648,26.977555 L27.3485721,26.977555 L27.3227971,41.9782298 L36.3215795,41.9782298 C39.445599,41.9782298 41.9781271,39.4457017 41.9781271,36.3216822 L41.9781271,5.65665037 C41.9780244,2.53252812 39.4454963,0 36.3213741,0 Z" id="Shape"></path>
            </g>
        </g>
    </g>
</svg>