<?xml version="1.0" encoding="UTF-8"?>
<svg width="42px" height="42px" viewBox="0 0 42 42" version="1.1" xmlns="http://www.w3.org/2000/svg" xmlns:xlink="http://www.w3.org/1999/xlink">
    <!-- Generator: Sketch 50.2 (55047) - http://www.bohemiancoding.com/sketch -->
    <title>003-whatsapp</title>
    <desc>Created with Sketch.</desc>
    <defs></defs>
    <g id="Page-1" stroke="none" stroke-width="1" fill="none" fill-rule="evenodd">
        <g id="Desktop-HD" transform="translate(-272.000000, -3129.000000)" fill="#7AD06D" fill-rule="nonzero">
            <g id="003-whatsapp" transform="translate(272.000000, 3129.000000)">
                <path d="M19.9832163,0.0242577566 C8.83413462,0.551312649 0.0359423077,9.76986158 0.0697644231,20.8516468 C0.0800625,24.2268831 0.900778846,27.4126683 2.34856731,30.2275704 L0.125697115,40.9403771 C0.00545192308,41.5198568 0.531865385,42.0272649 1.1116875,41.8909403 L11.6846827,39.4039189 C14.4010529,40.7473174 17.4521106,41.5232649 20.6811635,41.5721814 C32.0765913,41.7449928 41.5783846,32.7615036 41.9335673,21.4518759 C42.3142933,9.32871122 32.2365144,-0.555121718 19.9832163,0.0242577566 Z M32.5990673,32.2965967 C29.5026779,35.3708162 25.3857692,37.0638473 21.0068654,37.0638473 C18.4428462,37.0638473 15.9880673,36.4926874 13.710476,35.3663055 L12.2380529,34.6380716 L5.75571635,36.1629021 L7.12021154,29.5865442 L6.39480288,28.1761862 C5.21244231,25.8772124 4.61293269,23.3911933 4.61293269,20.7872936 C4.61293269,16.439642 6.31817308,12.3523103 9.4145625,9.27799045 C12.4832885,6.23123628 16.6673365,4.51063962 21.0071683,4.51063962 C25.3860721,4.51073986 29.5027788,6.20377088 32.5991683,9.27789021 C35.6955577,12.3521098 37.4007981,16.4394415 37.400899,20.7869928 C37.4007981,25.095852 35.6677933,29.2499427 32.5990673,32.2965967 Z" id="Shape"></path>
                <path d="M31.1680385,25.295327 L27.1125144,24.1391742 C26.5793365,23.9872124 26.0051683,24.1373699 25.6166683,24.5304057 L24.6249231,25.5335943 C24.2067404,25.9566014 23.5721971,26.0925251 23.018726,25.8701957 C21.1002548,25.0993604 17.0646202,21.5368783 16.0340048,19.7549356 C15.7366731,19.2409117 15.7858413,18.5982816 16.1509183,18.1292649 L17.0167644,17.0171169 C17.3559952,16.5813795 17.4275769,15.9961862 17.2032404,15.4924869 L15.4969904,11.6610644 C15.0882981,10.7433795 13.907149,10.4762434 13.1355,11.1241862 C12.0036202,12.0746492 10.6606298,13.5189881 10.497375,15.1190979 C10.2095337,17.9402148 11.4281394,21.4964821 16.0363269,25.7666492 C21.3600288,30.699895 25.6232308,31.3516468 28.3989663,30.6840573 C29.9733606,30.3054558 31.2315433,28.787642 32.0256058,27.5448831 C32.5669615,26.6975656 32.1394904,25.5722864 31.1680385,25.295327 Z" id="Shape"></path>
            </g>
        </g>
    </g>
</svg>